<svg xmlns="http://www.w3.org/2000/svg" width="250" height="" viewBox="0 0 218 66.883">
  <g id="Group_6887" data-name="Group 6887" transform="translate(19830 24165)">
    
    
    
    <path id="Path_33" data-name="Path 33" d="M401.119,108.5c.341.046.681.108,1.032.165A53.863,53.863,0,0,1,407.6,100.5,58.649,58.649,0,0,0,390.33,91.21ZM429,130.423l-17.784-5.766L432.1,158.093a57.818,57.818,0,0,0-3.113-27.67Z" transform="translate(-20131.707 -24256.211)" fill="#158285"/>
    <path id="Path_34" data-name="Path 34" d="M399.38,117.548c7.7-12.328,17.743-21.326,32.265-26.328l-20.892,33.442L389.861,158.1C387.992,142.843,391.678,129.876,399.38,117.548Z" transform="translate(-20131.248 -24256.215)" fill="#f7941d"/>
    <path id="Path_35" data-name="Path 35" d="M350.4,126.646l22.224,7.227a79.871,79.871,0,0,1,7.253-3.547q.48-1.177,1.032-2.354c.6-1.316,1.254-2.581,1.931-3.83A67.322,67.322,0,0,0,350.4,126.646Zm60.766,7.227-19.271,6.262,41.495,13.484a67.073,67.073,0,0,0-22.224-19.756Z" transform="translate(-20112.389 -24271.688)" fill="#2bb574"/>
    <path id="Path_36" data-name="Path 36" d="M350.4,153.61l23.716-7.707a64.377,64.377,0,0,1,2.973-6.8,56.709,56.709,0,0,1,2.788-8.776A68.482,68.482,0,0,0,350.4,153.61Zm51.587-29.632-10.092,16.158,41.495-13.479a67.209,67.209,0,0,0-31.4-2.679Z" transform="translate(-20112.389 -24271.689)" fill="#fcb614"/>
  </g>
</svg>
